<svg width="10" height="10" viewBox="0 0 10 10" fill="none" xmlns="http://www.w3.org/2000/svg">
<path d="M0.264837 3.27336H2.13133V9.26698H0.264837V3.27336ZM1.19437 0.298853C1.40973 0.297383 1.62065 0.359995 1.80032 0.478724C1.98 0.597454 2.12032 0.766939 2.20341 0.965624C2.2865 1.16431 2.30863 1.38322 2.26697 1.59451C2.22532 1.80581 2.12177 1.99994 1.96948 2.15222C1.8172 2.30451 1.62307 2.40806 1.41177 2.44972C1.20048 2.49137 0.981562 2.46924 0.782877 2.38615C0.584191 2.30306 0.414714 2.16275 0.295984 1.98307C0.177254 1.8034 0.114644 1.59247 0.116114 1.37711C0.116114 1.09114 0.229718 0.816881 0.431931 0.614668C0.634143 0.412456 0.908398 0.298853 1.19437 0.298853Z" fill="#9B9B9B"/>
<path d="M3.29883 3.27274H5.08353V4.09073C5.2641 3.78681 5.52283 3.53683 5.83278 3.36682C6.14273 3.1968 6.49258 3.11296 6.84593 3.12401C8.73474 3.12401 9.07681 4.36587 9.07681 5.97954V9.26637H7.24748V6.35135C7.24748 5.65234 7.24748 4.75999 6.27333 4.75999C5.29918 4.75999 5.15789 5.50362 5.15789 6.2993V9.2738H3.29883V3.27274Z" fill="#9B9B9B"/>
</svg>
